<svg width="1440" height="800" viewBox="0 0 1440 800" fill="none" xmlns="http://www.w3.org/2000/svg">
<g clip-path="url(#clip0_1_359)">
<path d="M46.1387 57.7136L55.4944 48.3678C56.1265 47.7392 56.9817 47.3862 57.8732 47.3862C58.7647 47.3862 59.6199 47.7392 60.252 48.3678L60.9791 49.0949L62.4365 47.6374L61.7095 46.907C60.6899 45.8897 59.3085 45.3184 57.8682 45.3184C56.4279 45.3184 55.0465 45.8897 54.027 46.907L44.6779 56.2562L46.1387 57.7136Z" fill="black"/>
<path d="M58.6285 51.4455L57.171 49.988L47.8119 59.3471C47.1797 59.9789 46.3224 60.3336 45.4287 60.3333C44.5349 60.333 43.6779 59.9776 43.0461 59.3454C42.4143 58.7132 42.0596 57.8559 42.0599 56.9622C42.0602 56.0684 42.4155 55.2113 43.0477 54.5796L51.122 46.5053L49.6645 45.0479L41.5903 53.1221C41.0763 53.6242 40.667 54.2233 40.3861 54.8847C40.1053 55.546 39.9585 56.2566 39.9542 56.9751C39.9499 57.6936 40.0882 58.4059 40.3611 59.0706C40.6341 59.7352 41.0362 60.3392 41.5441 60.8474C42.0521 61.3556 42.6559 61.7579 43.3204 62.0311C43.985 62.3043 44.6972 62.443 45.4157 62.439C46.1342 62.435 46.8448 62.2885 47.5063 62.0079C48.1678 61.7274 48.7671 61.3184 49.2694 60.8046L58.6285 51.4455ZM67.9444 53.1221C66.9245 52.1056 65.5432 51.5348 64.1032 51.5348C62.6632 51.5348 61.2819 52.1056 60.2619 53.1221L50.9029 62.4812L52.3603 63.9387L61.7194 54.5796C62.1909 54.1091 62.7912 53.7888 63.4446 53.6593C64.0979 53.5297 64.775 53.5968 65.3903 53.8518C66.0056 54.1069 66.5315 54.5386 66.9016 55.0924C67.2717 55.6462 67.4694 56.2973 67.4697 56.9633C67.4714 57.4071 67.3841 57.8466 67.213 58.2561C67.042 58.6655 66.7906 59.0365 66.4737 59.3471L58.4094 67.4213L59.8702 68.8788L67.9444 60.8046C68.9618 59.7851 69.5331 58.4036 69.5331 56.9633C69.5331 55.5231 68.9618 54.1416 67.9444 53.1221Z" fill="black"/>
<path d="M63.3961 56.2133L54.037 65.569C53.4041 66.2 52.5469 66.5542 51.6532 66.5542C50.7596 66.5542 49.9024 66.2 49.2695 65.569L48.5424 64.8386L47.0849 66.2961L47.812 67.0265C48.8319 68.0431 50.2132 68.6138 51.6532 68.6138C53.0932 68.6138 54.4745 68.0431 55.4945 67.0265L64.8535 57.6641L63.3961 56.2133ZM78.0804 59.4802C78.1762 60.0353 78.4787 60.5335 78.927 60.8746C79.4413 61.2304 80.0587 61.4066 80.6833 61.3759C81.2779 61.4138 81.8665 61.2384 82.3433 60.8812C82.5334 60.7231 82.6848 60.5237 82.7861 60.2981C82.8873 60.0726 82.9357 59.8269 82.9276 59.5798C82.9343 59.3486 82.8805 59.1197 82.7716 58.9158C82.6625 58.7306 82.5126 58.5728 82.3333 58.4543C82.1195 58.3123 81.8872 58.2006 81.6428 58.1223L80.7198 57.8434L79.84 57.6044C79.3523 57.4751 78.8777 57.3006 78.4224 57.0831C78.0315 56.8983 77.6701 56.6566 77.35 56.366C77.0645 56.1009 76.8382 55.7785 76.686 55.4198C76.5236 55.0252 76.4445 54.6014 76.4536 54.1748C76.4489 53.7022 76.5511 53.2346 76.7524 52.807C76.9465 52.3908 77.234 52.025 77.5924 51.7379C77.9866 51.4224 78.4373 51.1846 78.9204 51.0374C79.4849 50.8585 80.0746 50.7722 80.6667 50.7818C81.8862 50.7818 82.8524 51.0695 83.5651 51.645C83.9183 51.9294 84.2112 52.2815 84.4267 52.6805C84.6422 53.0796 84.7759 53.5176 84.82 53.969L82.828 54.1316C82.7294 53.6746 82.4732 53.2668 82.1043 52.9796C81.6569 52.6806 81.1241 52.536 80.587 52.5679C80.0802 52.5381 79.5788 52.6861 79.1694 52.9862C79.0058 53.1137 78.8744 53.2777 78.7856 53.465C78.6969 53.6524 78.6532 53.858 78.6581 54.0652C78.6499 54.2862 78.7015 54.5053 78.8075 54.6994C78.9143 54.8785 79.0608 55.0307 79.2358 55.1442C79.449 55.283 79.6788 55.3945 79.9197 55.4762C80.1886 55.5758 80.4941 55.6821 80.8327 55.7916L81.676 56.0539C82.2005 56.2199 82.6753 56.3926 83.1003 56.5718C83.4911 56.7381 83.8548 56.9619 84.1793 57.2358C84.4717 57.4834 84.7054 57.793 84.8632 58.1422C85.034 58.5542 85.1155 58.9978 85.1022 59.4436C85.1077 59.9648 84.9942 60.4803 84.7702 60.9509C84.5542 61.4029 84.2386 61.8002 83.8473 62.1129C83.4267 62.4455 82.9483 62.6976 82.4363 62.8566C81.8528 63.0381 81.2445 63.1266 80.6335 63.1189C79.553 63.1591 78.4871 62.8596 77.5857 62.2623C77.165 61.9578 76.8126 61.5686 76.5513 61.1198C76.29 60.6709 76.1255 60.1724 76.0685 59.6561L78.0804 59.4802ZM93.5018 50.815C94.3369 50.8042 95.1661 50.9576 95.942 51.2665C96.6507 51.5503 97.2904 51.9828 97.8178 52.5347C98.3471 53.0975 98.757 53.7615 99.023 54.4869C99.315 55.2842 99.4601 56.1278 99.4513 56.9769C99.4632 57.8415 99.3088 58.7004 98.9964 59.5067C98.7053 60.2396 98.2655 60.9043 97.7049 61.4589L99.2853 63.3081V63.8825H97.2933L96.1877 62.5312C95.7872 62.7229 95.3677 62.872 94.9361 62.9761C94.4702 63.0757 93.9948 63.1247 93.5184 63.1222C92.6737 63.1273 91.8364 62.9648 91.055 62.6441C90.3503 62.3585 89.7151 61.9248 89.1925 61.3726C88.6696 60.8123 88.2664 60.1515 88.0072 59.4304C87.7209 58.6409 87.5781 57.8066 87.5856 56.9669C87.5773 56.1217 87.7201 55.2819 88.0072 54.4869C88.268 53.7633 88.6748 53.101 89.2024 52.5414C89.7286 51.9893 90.3656 51.5548 91.0716 51.2665C91.843 50.9539 92.6696 50.8003 93.5018 50.815ZM93.4852 52.5945C92.9371 52.586 92.3939 52.6994 91.8949 52.9265C91.4365 53.1383 91.0315 53.4503 90.7097 53.8395C90.3751 54.2476 90.1226 54.7166 89.966 55.2206C89.7928 55.7818 89.7077 56.3664 89.7137 56.9536C89.7079 57.546 89.7964 58.1355 89.976 58.7C90.1368 59.2086 90.3913 59.6826 90.7263 60.0977C91.0475 60.4916 91.4524 60.8092 91.9115 61.0273C92.41 61.256 92.9535 61.3694 93.5018 61.3593C94.0497 61.3646 94.5922 61.2514 95.0921 61.0273C95.5496 60.82 95.9547 60.5125 96.2773 60.1276C96.6163 59.7188 96.8713 59.2472 97.0277 58.7398C97.2093 58.162 97.2989 57.5593 97.2933 56.9536C97.2983 56.3568 97.2087 55.7628 97.0277 55.194C96.869 54.6896 96.6142 54.2206 96.2773 53.8129C95.9513 53.4279 95.5443 53.1196 95.0855 52.9099C94.5815 52.6892 94.0353 52.5815 93.4852 52.5945ZM107.276 61.4423C107.646 61.465 108.015 61.4066 108.359 61.2713C108.703 61.1359 109.014 60.9269 109.268 60.6588C109.74 60.1386 109.976 59.3396 109.976 58.2617V51.044H112.044V58.3281C112.06 59.0744 111.948 59.8178 111.712 60.526C111.521 61.0932 111.199 61.6073 110.772 62.0266C110.349 62.4276 109.835 62.7213 109.275 62.8832C107.972 63.2437 106.595 63.2437 105.291 62.8832C104.733 62.7212 104.222 62.4274 103.8 62.0266C103.375 61.6065 103.053 61.0926 102.861 60.526C102.625 59.8178 102.513 59.0744 102.529 58.3281V51.044H104.604V58.2617C104.604 59.3374 104.841 60.1364 105.314 60.6588C105.565 60.9232 105.871 61.1302 106.21 61.2655C106.548 61.4007 106.912 61.461 107.276 61.4423ZM114.116 62.3121L118.315 51.0573H121.43L125.583 62.3121V62.8765H123.541L122.353 59.4968H117.23L116.028 62.8765H114.102L114.116 62.3121ZM117.854 57.7305H121.762L121.118 55.8514C120.865 55.1177 120.663 54.5234 120.507 54.0553C120.351 53.5872 120.218 53.1888 120.095 52.8368H119.587L119.388 53.3979C119.321 53.5838 119.248 53.793 119.165 54.0221C119.082 54.2512 118.993 54.5168 118.893 54.8156C118.794 55.1144 118.674 55.4563 118.531 55.8514L117.854 57.7305ZM137.183 62.8765H135.191L131.582 58.2285H130.254V62.8765H128.209V51.044H132.05C132.626 51.043 133.201 51.0841 133.77 51.1669C134.299 51.2436 134.804 51.4388 135.248 51.7379C136.182 52.3532 136.649 53.2806 136.649 54.5201C136.658 55.0004 136.576 55.4782 136.406 55.9278C136.263 56.3063 136.047 56.6535 135.772 56.9503C135.509 57.2293 135.201 57.4607 134.859 57.6342C134.517 57.8093 134.154 57.9419 133.78 58.0293L137.183 62.3121V62.8765ZM130.248 56.449H132.044C132.695 56.4837 133.343 56.3341 133.913 56.0174C134.142 55.864 134.327 55.6519 134.447 55.4033C134.567 55.1546 134.619 54.8784 134.597 54.6031C134.624 54.3299 134.573 54.0545 134.45 53.8089C134.328 53.5633 134.138 53.3575 133.903 53.2153C133.327 52.9288 132.687 52.7939 132.044 52.8236H130.248V56.449ZM139.819 51.044H147.482V52.8568H141.838V55.9543H147.077V57.7338H141.848V61.0538H147.598V62.8765H139.819V51.044ZM152.18 59.4802C152.275 60.0353 152.578 60.5335 153.026 60.8746C153.541 61.2299 154.158 61.4061 154.782 61.3759C155.377 61.4138 155.966 61.2384 156.442 60.8812C156.632 60.7231 156.784 60.5237 156.885 60.2981C156.986 60.0726 157.035 59.8269 157.027 59.5798C157.033 59.3486 156.98 59.1197 156.871 58.9158C156.762 58.7306 156.612 58.5728 156.432 58.4543C156.219 58.3123 155.986 58.2006 155.742 58.1223L154.819 57.8434L153.929 57.5977C153.441 57.4685 152.967 57.294 152.512 57.0765C152.121 56.8917 151.759 56.65 151.439 56.3594C151.154 56.0943 150.927 55.7718 150.775 55.4132C150.611 54.9953 150.532 54.5488 150.544 54.1C150.555 53.6513 150.656 53.2093 150.842 52.8003C151.037 52.3849 151.324 52.0193 151.682 51.7313C152.076 51.4157 152.526 51.178 153.009 51.0308C153.574 50.8519 154.164 50.7656 154.756 50.7751C155.975 50.7751 156.943 51.0629 157.658 51.6383C158.01 51.9229 158.303 52.2751 158.518 52.6742C158.733 53.0732 158.866 53.5112 158.909 53.9623L156.917 54.125C156.82 53.6689 156.567 53.2612 156.2 52.973C155.753 52.6735 155.22 52.5289 154.683 52.5613C154.176 52.5315 153.675 52.6794 153.265 52.9796C153.102 53.1074 152.971 53.2715 152.883 53.4589C152.795 53.6462 152.752 53.8516 152.757 54.0586C152.748 54.2793 152.798 54.4983 152.903 54.6927C153.01 54.8719 153.157 55.0241 153.332 55.1376C153.545 55.2763 153.775 55.3879 154.015 55.4696C154.284 55.5692 154.59 55.6754 154.932 55.785L155.772 56.0473C156.299 56.2133 156.773 56.3859 157.196 56.5652C157.587 56.7314 157.951 56.9552 158.275 57.2292C158.567 57.4768 158.801 57.7864 158.959 58.1356C159.13 58.5476 159.211 58.9912 159.198 59.437C159.204 59.9582 159.09 60.4737 158.866 60.9443C158.651 61.397 158.335 61.7945 157.943 62.1063C157.522 62.4362 157.043 62.686 156.532 62.8433C155.947 63.0248 155.338 63.1133 154.726 63.1056C153.645 63.1454 152.58 62.8459 151.678 62.249C151.26 61.9454 150.91 61.558 150.65 61.1116C150.39 60.6652 150.226 60.1695 150.168 59.6561L152.18 59.4802ZM162.146 51.044H166.462C167.146 51.0264 167.828 51.1217 168.481 51.3262C168.977 51.4791 169.431 51.7438 169.809 52.0998C170.141 52.4227 170.389 52.8215 170.532 53.2618C170.685 53.7268 170.76 54.2135 170.755 54.7027C170.768 55.2539 170.664 55.8018 170.449 56.3096C170.255 56.7536 169.953 57.1418 169.57 57.4384C169.15 57.7488 168.674 57.9744 168.169 58.1024C167.56 58.2584 166.934 58.3332 166.306 58.3248H164.215V62.8765H162.153L162.146 51.044ZM164.208 56.5486H166.183C166.517 56.5511 166.851 56.5211 167.179 56.459C167.459 56.4067 167.726 56.3043 167.969 56.1568C168.193 56.0169 168.375 55.8198 168.497 55.5858C168.631 55.3111 168.696 55.008 168.687 54.7027C168.696 54.3898 168.632 54.0791 168.497 53.7963C168.379 53.5593 168.199 53.3586 167.976 53.2153C167.737 53.0668 167.472 52.9644 167.196 52.9132C166.868 52.8506 166.534 52.8206 166.2 52.8236H164.191L164.208 56.5486ZM171.326 62.3121L175.529 51.0573H178.643L182.793 62.3121V62.8765H180.768L179.583 59.4968H174.44L173.255 62.8765H171.326V62.3121ZM175.068 57.7305H178.972L178.328 55.8514C178.076 55.1177 177.873 54.5234 177.72 54.0553L177.309 52.8368H176.784L176.585 53.3979C176.518 53.5838 176.445 53.793 176.362 54.0221C176.279 54.2512 176.19 54.5168 176.09 54.8156C175.991 55.1144 175.871 55.4563 175.728 55.8514L175.068 57.7305ZM195.349 59.7458C195.162 60.2087 194.917 60.646 194.619 61.0472C194.311 61.4585 193.94 61.8192 193.52 62.1162C193.065 62.4358 192.562 62.6802 192.029 62.84C191.418 63.0232 190.782 63.1127 190.144 63.1056C189.319 63.1181 188.501 62.961 187.74 62.6441C187.043 62.3533 186.415 61.9189 185.897 61.3692C185.377 60.807 184.976 60.1452 184.719 59.4237C184.437 58.639 184.297 57.8106 184.304 56.9769C184.296 56.1432 184.437 55.3147 184.719 54.53C184.977 53.8054 185.38 53.141 185.904 52.5779C186.425 52.0224 187.056 51.5814 187.757 51.2831C188.52 50.962 189.342 50.8026 190.17 50.815C191.322 50.774 192.459 51.0906 193.424 51.7213C194.282 52.3057 194.931 53.1474 195.28 54.125L193.185 54.5367C192.924 53.9617 192.511 53.4691 191.99 53.1124C191.439 52.7558 190.793 52.5752 190.137 52.5945C189.599 52.5827 189.066 52.6964 188.58 52.9265C188.132 53.1462 187.739 53.4625 187.428 53.8528C187.102 54.2685 186.858 54.743 186.711 55.2505C186.541 55.809 186.457 56.3899 186.462 56.9736C186.457 57.561 186.543 58.1456 186.717 58.7066C186.874 59.2091 187.125 59.6769 187.458 60.0844C187.783 60.4671 188.187 60.7742 188.643 60.9841C189.139 61.2118 189.681 61.3253 190.227 61.3161C190.905 61.3434 191.574 61.1462 192.129 60.755C192.618 60.3966 193.016 59.928 193.291 59.3872L195.349 59.7458ZM198.135 51.044H205.798V52.8568H200.154V55.9543H205.402V57.7338H200.163V61.0538H205.914V62.8765H198.135V51.044Z" fill="black"/>
</g>
<path d="M1384.64 48.3579L1398.78 62.5L1399.84 61.4393L1385.7 47.2972L1384.64 48.3579Z" fill="black"/>
<path d="M1385.64 62.6421L1399.78 48.5L1398.72 47.4393L1384.58 61.5815L1385.64 62.6421Z" fill="black"/>
<defs>
<clipPath id="clip0_1_359">
<rect width="166" height="24" fill="white" transform="translate(40 45)"/>
</clipPath>
</defs>
</svg>
